<?xml version="1.0" standalone="no"?>
<!DOCTYPE svg PUBLIC "-//W3C//DTD SVG 20010904//EN"
 "http://www.w3.org/TR/2001/REC-SVG-20010904/DTD/svg10.dtd">
<svg version="1.0" xmlns="http://www.w3.org/2000/svg"
 width="1024.000000pt" height="1024.000000pt" viewBox="0 0 1024.000000 1024.000000"
 preserveAspectRatio="xMidYMid meet">
<metadata>
Created by potrace 1.14, written by Peter Selinger 2001-2017
</metadata>
<g transform="translate(0.000000,1024.000000) scale(0.100000,-0.100000)"
fill="#000000" stroke="none">
<path d="M4967 9914 c-1 -1 -65 -5 -141 -8 -76 -4 -142 -8 -146 -11 -3 -2 -40
-6 -81 -9 -41 -3 -85 -8 -98 -11 -14 -2 -49 -5 -78 -6 -30 -1 -56 -6 -59 -11
-3 -4 -9 -6 -12 -4 -4 2 -30 0 -57 -5 -52 -11 -92 -18 -135 -24 -14 -2 -43 -6
-65 -10 -53 -10 -364 -91 -399 -105 -15 -5 -32 -8 -37 -4 -5 3 -9 1 -9 -5 0
-5 -15 -13 -32 -16 -18 -4 -44 -12 -58 -18 -14 -6 -27 -11 -30 -12 -20 -5 -58
-18 -75 -24 -11 -5 -40 -16 -65 -26 -85 -33 -145 -57 -171 -71 -14 -7 -29 -11
-33 -7 -3 3 -6 1 -6 -5 0 -7 -7 -12 -15 -12 -8 0 -23 -4 -33 -9 -38 -21 -131
-61 -141 -61 -6 0 -11 -4 -11 -8 0 -4 -22 -16 -50 -27 -27 -11 -50 -24 -50
-29 0 -5 -3 -6 -7 -3 -3 4 -11 3 -17 -2 -6 -5 -51 -30 -101 -56 -49 -26 -101
-55 -115 -64 -52 -33 -66 -41 -90 -53 -14 -7 -28 -17 -32 -23 -4 -5 -8 -7 -8
-2 0 4 -8 0 -17 -9 -10 -9 -47 -34 -83 -57 -36 -22 -69 -45 -75 -49 -5 -5 -46
-34 -90 -65 -44 -32 -87 -64 -95 -73 -8 -8 -28 -24 -43 -33 -32 -21 -66 -49
-109 -89 -15 -15 -28 -25 -28 -22 0 3 -12 -8 -26 -25 -14 -17 -29 -31 -33 -31
-5 0 -47 -37 -95 -83 -47 -45 -86 -81 -86 -79 0 5 -182 -184 -222 -231 -20
-24 -47 -54 -60 -68 -13 -14 -43 -49 -68 -79 -24 -30 -50 -62 -57 -70 -14 -16
-74 -92 -99 -125 -30 -40 -64 -92 -106 -160 -23 -38 -48 -74 -54 -80 -6 -5
-43 -64 -81 -130 -200 -343 -234 -405 -238 -423 -2 -11 -16 -40 -31 -63 -15
-24 -27 -51 -27 -59 0 -8 -8 -27 -19 -42 -10 -15 -18 -30 -16 -35 1 -8 -15
-50 -34 -87 -5 -10 -11 -26 -13 -35 -2 -9 -15 -50 -30 -91 -27 -78 -31 -90
-34 -102 -1 -4 -10 -28 -21 -53 -11 -25 -19 -49 -18 -53 1 -4 -5 -20 -12 -37
-7 -16 -21 -59 -30 -95 -10 -36 -25 -86 -34 -112 -8 -27 -12 -48 -9 -48 3 0 1
-6 -5 -13 -6 -7 -14 -35 -17 -62 -4 -28 -8 -57 -10 -65 -3 -8 -7 -33 -11 -55
-3 -22 -7 -42 -9 -45 -2 -3 -7 -33 -10 -65 -4 -33 -9 -63 -11 -66 -3 -5 -8
-41 -19 -129 -3 -19 -9 -71 -15 -115 -6 -44 -13 -105 -16 -135 -3 -30 -7 -71
-10 -90 -9 -64 -10 -102 -2 -106 4 -3 4 -15 -1 -27 -8 -22 -7 -54 2 -63 16
-16 1170 -24 1527 -11 365 14 430 17 482 21 68 6 225 16 308 21 36 2 65 4 65
5 0 0 38 2 85 5 47 2 111 7 143 10 l57 6 0 -195 c0 -150 3 -196 13 -196 9 0 9
-2 -1 -8 -19 -13 -12 -61 9 -57 11 2 16 -2 15 -13 -2 -9 -8 -18 -14 -18 -7 -1
-15 -3 -19 -4 -5 -1 -11 -2 -14 -2 -39 5 -143 13 -221 17 -54 4 -108 8 -120
11 -13 2 -75 6 -138 10 -63 3 -135 7 -160 9 -25 2 -121 6 -215 10 -93 4 -208
8 -255 10 -202 9 -260 10 -260 2 0 -4 -6 -5 -12 -1 -16 10 -112 12 -538 13
-340 1 -669 -4 -702 -10 -13 -3 -17 -17 -20 -72 -2 -38 -1 -71 2 -73 2 -3 5
-15 6 -27 4 -47 15 -160 19 -185 2 -15 6 -45 9 -67 3 -22 8 -56 12 -75 3 -19
8 -46 9 -60 6 -43 45 -233 56 -275 6 -22 12 -44 14 -50 1 -5 5 -17 8 -25 3 -8
8 -26 10 -40 3 -14 17 -68 31 -120 15 -52 28 -105 30 -116 2 -12 9 -30 14 -40
6 -11 22 -53 36 -94 44 -133 84 -241 90 -247 3 -4 6 -15 6 -25 0 -10 5 -18 10
-18 6 0 10 -8 11 -17 0 -10 11 -40 24 -68 13 -27 21 -53 19 -57 -3 -5 0 -8 5
-8 6 0 11 -5 11 -11 0 -6 33 -76 74 -157 104 -207 108 -215 123 -230 7 -7 13
-20 13 -28 0 -8 5 -14 12 -14 6 0 9 -3 5 -6 -3 -3 3 -15 14 -27 10 -11 19 -27
19 -34 0 -7 4 -13 8 -13 5 0 19 -20 32 -45 13 -25 27 -45 32 -45 4 0 8 -6 8
-13 0 -7 8 -22 18 -33 10 -10 29 -37 42 -59 13 -22 29 -44 35 -50 7 -5 29 -35
50 -65 22 -30 42 -57 45 -60 3 -3 23 -30 45 -60 22 -30 46 -62 55 -70 9 -8 29
-33 46 -55 16 -22 38 -50 49 -62 11 -11 40 -45 65 -73 25 -29 79 -88 121 -131
42 -44 74 -79 72 -79 -2 0 20 -21 48 -47 29 -27 70 -64 91 -83 20 -19 56 -51
78 -70 22 -19 52 -45 66 -58 14 -12 30 -22 35 -22 6 0 7 -4 4 -10 -3 -5 -2
-10 4 -10 5 0 21 -10 35 -23 14 -12 42 -33 62 -47 20 -14 44 -33 54 -42 26
-24 173 -128 228 -162 26 -15 50 -32 53 -37 7 -12 440 -260 459 -264 9 -2 39
-17 68 -34 29 -17 52 -28 52 -25 0 3 25 -8 55 -25 30 -17 55 -29 55 -25 0 3
17 -4 38 -15 42 -22 114 -56 122 -56 11 -1 127 -48 155 -63 17 -9 30 -14 30
-12 0 4 104 -29 120 -38 5 -3 16 -7 25 -8 8 -1 48 -13 89 -27 41 -15 78 -24
82 -21 4 2 10 0 13 -5 5 -8 67 -23 93 -23 5 0 14 -4 21 -10 7 -6 15 -8 19 -5
3 4 12 2 20 -4 7 -6 13 -9 13 -6 0 3 20 0 44 -7 25 -8 47 -12 49 -10 2 3 17 0
33 -6 16 -6 47 -13 69 -15 22 -2 41 -5 43 -6 3 -2 10 -4 67 -14 28 -5 55 -10
60 -11 6 -1 12 -3 15 -4 3 -1 16 -3 30 -5 14 -1 54 -5 90 -9 36 -4 76 -9 90
-12 24 -4 99 -10 260 -19 107 -6 420 -7 520 -1 147 9 214 14 260 21 25 4 56 8
70 9 14 2 50 7 80 11 30 4 66 9 80 11 25 2 97 13 135 20 39 6 65 13 75 19 5 3
28 8 51 10 23 3 66 11 94 20 29 8 68 17 86 19 19 3 72 17 119 31 47 14 112 33
145 42 33 9 61 20 63 24 2 4 10 5 18 2 8 -3 14 -1 14 4 0 5 10 10 22 10 13 1
41 10 63 19 51 21 102 41 125 49 18 6 51 20 87 36 24 10 50 19 58 19 8 0 15 5
15 10 0 6 6 10 13 10 7 0 37 11 65 25 28 14 57 26 64 27 7 2 15 5 18 8 3 3 27
17 53 30 29 15 50 34 53 47 7 27 -53 153 -72 153 -8 0 -11 6 -7 16 3 9 -3 23
-16 35 -11 11 -21 26 -21 34 0 8 -10 25 -23 37 -13 13 -22 29 -20 35 2 6 -2
17 -9 24 -7 8 -20 28 -28 44 -8 17 -21 36 -27 43 -7 7 -13 20 -13 28 0 8 -5
14 -11 14 -5 0 -8 4 -5 8 3 5 -6 20 -19 34 -13 14 -21 29 -18 32 4 3 -4 15
-17 26 -13 11 -20 20 -16 20 3 0 -6 22 -21 50 -14 27 -29 47 -33 45 -4 -2 -7
2 -7 9 0 17 -66 126 -76 126 -4 0 -6 4 -2 9 3 5 -2 17 -11 25 -8 9 -12 16 -7
16 4 0 0 5 -9 11 -10 5 -18 17 -18 26 0 8 -11 29 -25 45 -14 16 -23 34 -19 39
3 5 0 9 -7 9 -7 0 -10 3 -6 6 3 3 -3 14 -14 25 -11 11 -17 24 -14 29 4 6 2 10
-2 10 -5 0 -17 16 -27 35 -11 19 -26 35 -35 35 -14 0 -14 2 -1 10 10 6 11 10
3 10 -7 0 -13 4 -13 10 0 5 -17 36 -37 67 -21 32 -43 70 -50 86 -7 15 -18 27
-24 27 -7 0 -10 3 -6 6 3 3 -9 27 -27 53 -18 25 -46 70 -62 98 -16 29 -32 53
-36 53 -5 0 -8 7 -8 15 0 8 -5 15 -12 15 -6 0 -9 3 -5 6 3 3 -3 15 -14 27 -10
11 -19 26 -19 33 0 6 -7 14 -15 18 -8 3 -15 12 -15 19 0 12 -30 57 -70 104 -6
7 -8 13 -5 13 4 0 -5 14 -19 31 -14 17 -26 34 -26 39 0 5 -6 15 -12 22 -14 14
-57 75 -102 143 -14 22 -32 48 -39 58 -19 30 -85 121 -97 135 -6 6 -8 12 -4
12 3 0 1 7 -6 15 -11 13 -8 15 14 15 16 0 25 4 21 10 -5 9 15 15 38 11 4 0 7
4 7 10 0 5 5 7 10 4 6 -3 10 2 10 12 0 15 2 16 10 3 9 -13 10 -13 10 0 0 12 2
12 9 2 6 -10 10 -9 14 7 3 12 11 21 19 21 10 0 9 -3 -2 -10 -9 -6 -10 -10 -3
-10 6 0 19 10 27 22 9 13 16 17 16 9 0 -10 3 -11 13 -2 8 6 17 7 21 3 4 -4 6
0 4 8 -2 8 3 14 10 12 6 -1 12 6 13 15 0 10 3 13 5 6 8 -19 34 -4 27 15 -4 9
-3 14 2 10 4 -4 15 -2 23 5 13 10 14 9 7 -3 -4 -8 1 -6 12 5 11 11 19 23 16
28 -2 4 0 7 6 7 5 0 12 -6 14 -12 4 -10 6 -10 6 0 1 7 6 10 13 6 6 -4 8 -3 4
4 -10 16 11 25 31 13 10 -6 14 -11 10 -11 -5 0 -2 -12 6 -27 9 -16 28 -55 44
-88 15 -33 31 -62 36 -63 4 -2 5 -8 1 -13 -3 -5 0 -9 5 -9 6 0 11 -8 11 -17 0
-10 9 -33 20 -50 11 -18 16 -33 12 -33 -4 0 -2 -4 3 -8 13 -9 165 -313 165
-329 0 -7 5 -13 10 -13 6 0 10 -6 10 -14 0 -8 6 -21 13 -28 6 -8 28 -45 47
-83 19 -39 38 -72 43 -73 4 -2 5 -8 1 -13 -3 -5 0 -9 5 -9 6 0 11 -4 11 -9 0
-14 18 -52 40 -86 11 -16 26 -45 35 -64 8 -19 29 -56 45 -83 16 -26 27 -48 24
-48 -3 0 2 -7 10 -16 9 -8 16 -22 16 -30 0 -8 5 -14 10 -14 6 0 9 -3 8 -8 -2
-7 21 -53 31 -62 3 -3 19 -31 36 -62 16 -32 34 -58 39 -58 5 0 7 -3 3 -6 -5
-5 58 -123 73 -134 3 -3 12 -20 19 -37 8 -18 17 -33 22 -33 5 0 11 -11 15 -25
3 -14 10 -25 16 -25 5 0 6 -5 3 -10 -3 -5 -2 -10 3 -10 6 0 13 -11 16 -25 4
-14 11 -25 17 -25 6 0 7 -5 4 -10 -3 -6 -2 -10 4 -10 5 0 13 -10 17 -22 4 -13
10 -25 14 -28 8 -6 85 -133 120 -200 27 -50 77 -126 98 -148 6 -7 12 -20 12
-27 0 -7 6 -20 13 -27 7 -7 23 -30 36 -50 12 -21 25 -38 29 -38 16 0 72 25 72
33 0 4 5 5 10 2 6 -3 10 -2 10 2 0 5 20 19 45 33 25 14 45 28 45 32 0 5 7 8
15 8 8 0 23 8 33 18 10 10 36 29 57 42 22 13 51 35 65 47 14 13 28 23 32 23 3
0 13 6 20 13 20 19 73 60 98 77 13 8 33 25 46 38 13 13 24 21 24 18 0 -3 11 5
24 17 48 45 86 77 86 72 0 -2 24 19 54 48 30 28 94 90 143 137 48 47 100 99
115 117 14 18 29 29 32 26 3 -4 6 -1 6 5 0 6 15 26 33 44 18 18 53 58 77 88
25 30 52 62 60 71 8 9 24 29 35 43 11 15 30 38 42 53 12 14 25 34 28 44 4 11
10 19 15 19 5 0 21 20 36 45 14 25 29 45 34 45 4 0 13 13 20 30 7 16 22 40 35
54 12 13 44 61 70 107 27 46 54 89 61 94 15 13 124 203 124 217 0 6 25 54 56
107 31 53 58 103 59 113 2 9 15 37 29 61 14 24 26 49 26 55 0 6 10 28 23 49
19 33 41 84 51 118 3 10 16 43 41 100 7 17 22 55 33 85 11 30 28 75 37 100 9
25 19 53 21 62 2 10 6 27 8 38 3 11 8 26 13 33 4 6 8 17 10 22 1 6 4 20 7 32
3 13 9 33 12 45 3 13 6 28 7 33 2 6 5 15 9 20 3 6 10 28 14 50 10 51 11 55 14
58 4 5 18 71 25 120 4 22 10 50 15 63 5 13 8 24 5 24 -2 0 1 15 6 33 5 17 12
52 15 77 8 63 12 88 18 108 3 9 8 46 11 82 3 36 7 82 10 102 27 234 27 743 0
973 -2 22 -7 69 -11 105 -9 93 -12 115 -14 115 -1 0 -3 14 -5 30 -2 17 -6 44
-9 60 -4 17 -9 52 -12 80 -3 27 -9 54 -14 60 -6 7 -8 14 -5 17 5 5 -20 133
-35 183 -5 17 -12 47 -14 69 -7 56 -48 206 -56 206 -4 0 -11 17 -15 37 -8 43
-53 191 -64 213 -5 9 -12 30 -16 48 -3 18 -10 32 -14 32 -3 0 -13 21 -20 48
-8 26 -19 56 -25 67 -5 11 -11 22 -11 25 -9 37 -125 281 -138 291 -5 3 -8 8
-6 10 1 2 -7 24 -18 49 -11 25 -20 49 -21 53 -1 4 -8 15 -17 23 -8 9 -15 22
-15 30 0 8 -4 14 -9 14 -5 0 -15 16 -21 35 -6 19 -16 35 -21 35 -5 0 -11 11
-15 25 -3 14 -10 25 -16 25 -5 0 -6 5 -3 10 3 6 2 10 -3 10 -8 0 -36 50 -32
59 1 2 -2 7 -7 10 -4 3 -26 33 -48 66 -22 33 -44 63 -50 67 -7 5 -7 8 0 8 6 0
6 3 -1 8 -5 4 -21 25 -34 47 -13 22 -29 45 -35 51 -5 6 -17 22 -25 34 -8 12
-21 29 -28 36 -7 8 -11 14 -7 14 3 0 -6 11 -20 25 -14 14 -25 29 -25 34 0 4
-18 26 -40 49 -21 23 -37 42 -35 42 6 0 -30 44 -67 82 -14 15 -25 28 -22 28 2
0 -13 17 -33 39 -21 21 -58 62 -83 91 -73 86 -345 351 -429 420 -24 19 -51 42
-60 50 -24 22 -72 61 -111 90 -18 14 -44 35 -59 47 -14 13 -29 23 -32 23 -3 0
-18 10 -31 23 -14 12 -49 38 -77 57 -29 19 -60 42 -69 51 -9 8 -35 26 -57 39
-22 13 -48 32 -59 43 -10 10 -22 15 -26 10 -14 -13 -792 -1365 -794 -1378 -1
-6 -37 -74 -81 -151 -44 -76 -80 -145 -81 -151 -1 -7 -23 -49 -48 -93 -25 -43
-46 -84 -46 -91 0 -6 -16 -38 -36 -70 -19 -32 -37 -66 -39 -77 -1 -10 -17 -41
-34 -70 -17 -29 -31 -58 -31 -63 0 -6 -11 -32 -24 -58 -13 -25 -32 -63 -42
-83 -17 -35 -19 -36 -36 -20 -37 36 -48 44 -48 30 0 -6 -6 -4 -13 7 -9 12 -19
15 -28 10 -11 -7 -11 -5 1 10 14 17 14 18 -10 5 -22 -12 -24 -12 -12 2 10 13
10 18 1 24 -8 4 -9 3 -5 -4 13 -21 -8 -13 -29 11 -11 13 -16 17 -11 10 6 -10
4 -12 -8 -7 -9 3 -16 11 -16 16 0 6 -6 8 -13 5 -8 -3 -28 8 -45 24 -32 30 -48
38 -36 17 5 -9 2 -8 -10 1 -13 11 -14 16 -4 23 9 6 5 7 -9 3 -13 -4 -23 -2
-23 4 0 5 -9 8 -20 6 -13 -3 -18 0 -14 7 5 7 0 9 -14 6 l-21 -6 22 44 c11 24
24 44 29 44 4 0 17 18 28 40 12 23 29 49 38 58 20 21 82 120 82 132 0 5 5 10
11 12 11 4 36 42 78 120 11 20 24 38 29 40 4 1 32 45 61 96 29 52 64 105 77
119 13 14 24 31 24 38 0 7 7 18 15 25 9 7 14 19 11 27 -3 8 -2 12 2 9 4 -2 32
39 62 92 30 53 61 104 70 113 35 37 101 159 93 172 -3 5 -2 7 4 4 5 -4 16 6
24 21 8 15 47 83 86 151 40 67 73 127 73 132 0 5 4 9 9 9 5 0 11 8 14 18 3 9
13 28 21 42 8 14 47 81 86 150 87 152 74 129 162 280 40 69 75 129 77 135 2 5
22 38 43 73 21 34 38 66 38 71 0 4 -22 19 -50 32 -27 13 -50 27 -50 31 0 5 -8
8 -19 8 -10 0 -39 12 -65 26 -25 14 -46 23 -46 20 0 -4 -18 5 -40 19 -22 14
-44 25 -49 25 -4 0 -42 14 -82 31 -41 17 -83 35 -94 39 -11 4 -33 13 -50 21
-16 7 -34 12 -39 10 -4 -1 -13 2 -20 7 -6 5 -24 13 -41 17 -34 10 -33 9 -60
19 -49 19 -71 26 -90 29 -11 2 -27 7 -35 10 -13 5 -97 29 -110 31 -3 1 -11 5
-17 9 -7 5 -13 6 -13 3 0 -2 -33 4 -72 15 -40 11 -91 24 -113 29 -55 12 -84
18 -103 24 -9 3 -35 8 -57 11 -22 3 -53 9 -70 12 -16 4 -37 7 -45 9 -28 4 -75
12 -105 18 -16 3 -66 10 -111 16 -44 6 -91 13 -105 15 -13 3 -55 7 -94 10 -38
3 -95 8 -125 11 -49 5 -408 12 -413 8z"/>
<path d="M6140 7026 c0 -2 7 -9 15 -16 9 -7 15 -8 15 -2 0 5 -7 12 -15 16 -8
3 -15 4 -15 2z"/>
</g>
</svg>
